<svg width="22" height="20" viewBox="0 0 22 20" fill="none" xmlns="http://www.w3.org/2000/svg">
<path d="M19.1639 16.6895L13.8753 11.6172C14.696 10.5996 15.1399 9.35547 15.1399 8.04688C15.1399 6.48047 14.5025 5.01172 13.3499 3.9043C12.1972 2.79687 10.6618 2.1875 9.03059 2.1875C7.39941 2.1875 5.86393 2.79883 4.71131 3.9043C3.55665 5.00977 2.92129 6.48047 2.92129 8.04688C2.92129 9.61133 3.55869 11.084 4.71131 12.1895C5.86393 13.2969 7.39737 13.9062 9.03059 13.9062C10.395 13.9062 11.6902 13.4805 12.7512 12.6953L18.0398 17.7656C18.0553 17.7805 18.0737 17.7923 18.094 17.8004C18.1142 17.8084 18.136 17.8126 18.1579 17.8126C18.1798 17.8126 18.2015 17.8084 18.2218 17.8004C18.2421 17.7923 18.2605 17.7805 18.276 17.7656L19.1639 16.916C19.1794 16.9011 19.1917 16.8835 19.2001 16.864C19.2085 16.8446 19.2128 16.8238 19.2128 16.8027C19.2128 16.7817 19.2085 16.7609 19.2001 16.7414C19.1917 16.722 19.1794 16.7043 19.1639 16.6895ZM12.2563 11.1406C11.3929 11.9668 10.2484 12.4219 9.03059 12.4219C7.8128 12.4219 6.66833 11.9668 5.80488 11.1406C4.94347 10.3125 4.46898 9.21484 4.46898 8.04688C4.46898 6.87891 4.94347 5.7793 5.80488 4.95312C6.66833 4.12695 7.8128 3.67188 9.03059 3.67188C10.2484 3.67188 11.3949 4.125 12.2563 4.95312C13.1177 5.78125 13.5922 6.87891 13.5922 8.04688C13.5922 9.21484 13.1177 10.3145 12.2563 11.1406Z" fill="currentColor"/>
<path d="M19.1639 16.6895L13.8753 11.6172C14.696 10.5996 15.1399 9.35547 15.1399 8.04688C15.1399 6.48047 14.5025 5.01172 13.3499 3.9043C12.1972 2.79687 10.6618 2.1875 9.03059 2.1875C7.39941 2.1875 5.86393 2.79883 4.71131 3.9043C3.55665 5.00977 2.92129 6.48047 2.92129 8.04688C2.92129 9.61133 3.55869 11.084 4.71131 12.1895C5.86393 13.2969 7.39737 13.9062 9.03059 13.9062C10.395 13.9062 11.6902 13.4805 12.7512 12.6953L18.0398 17.7656C18.0553 17.7805 18.0737 17.7923 18.094 17.8004C18.1142 17.8084 18.136 17.8126 18.1579 17.8126C18.1798 17.8126 18.2015 17.8084 18.2218 17.8004C18.2421 17.7923 18.2605 17.7805 18.276 17.7656L19.1639 16.916C19.1794 16.9011 19.1917 16.8835 19.2001 16.864C19.2085 16.8446 19.2128 16.8238 19.2128 16.8027C19.2128 16.7817 19.2085 16.7609 19.2001 16.7414C19.1917 16.722 19.1794 16.7043 19.1639 16.6895ZM12.2563 11.1406C11.3929 11.9668 10.2484 12.4219 9.03059 12.4219C7.8128 12.4219 6.66833 11.9668 5.80488 11.1406C4.94347 10.3125 4.46898 9.21484 4.46898 8.04688C4.46898 6.87891 4.94347 5.7793 5.80488 4.95312C6.66833 4.12695 7.8128 3.67188 9.03059 3.67188C10.2484 3.67188 11.3949 4.125 12.2563 4.95312C13.1177 5.78125 13.5922 6.87891 13.5922 8.04688C13.5922 9.21484 13.1177 10.3145 12.2563 11.1406Z" fill="currentColor" fill-opacity="0.2"/>
</svg>
